<?xml version="1.0" encoding="UTF-8"?> <svg xmlns="http://www.w3.org/2000/svg" fill="none" viewBox="0 0 54 48"><path fill="#000091" fill-rule="evenodd" d="M6.845 6.057c-.016-.017.05 0 .068-.034h-.126c-.017 0-.017-.017-.017-.034-.076.017-.177.051-.252.068-.11.034-.21.11-.336.143-.176.068-.32.211-.504.27-.017 0-.017-.017-.017-.034.017-.05.076-.067.11-.11 0-.016 0-.033-.017-.033.126-.177.302-.27.462-.413v-.05c.05-.068.125-.094.16-.178.016-.05.083-.11.159-.143-.017-.017-.05-.017-.05-.051-.068 0-.127.034-.194-.017a.626.626 0 01.1-.059c-.016 0-.024-.008-.033-.025-.017-.034.034-.068.076-.076.067-.017.143-.017.193-.068-.11-.017-.235.034-.353-.033.076-.211.21-.38.395-.481.017 0 .05 0 .05.017 0 .075-.05.143-.126.16.126.034.252.034.378.093-.016.033-.05.016-.067.016.076.051.177.017.252.076-.05.051-.092 0-.143 0 .496.144 1.017.253 1.428.574-.352.177-.714.253-1.092.337-.05 0-.075 0-.126-.016 0 .016 0 .05-.016.05-.068 0-.11 0-.16.034-.059.05-.151.067-.202.017zM6.52 7.17c-.068.042-.126.085-.185.127-.067.042-.143.067-.21.101-.009-.008-.017-.008-.025-.008a.754.754 0 00-.16.126l-.025.025-.025.026-.034.033c-.008.009-.008.017-.025.026-.009.008-.034.008-.034-.009-.008.009-.017.009-.025.017-.008.009-.017.009-.025.017h-.017c-.017.017-.042.034-.059.05-.033.034-.067.06-.092.102v.008l-.009.009s0 .008-.008.008c0 .009-.008.009-.008.017 0 0-.009.008-.017.008l-.009-.008s0-.008-.008-.008c-.008-.009-.008-.017-.017-.026v-.008a.366.366 0 00.05-.06c.009-.008.009-.016.017-.016.009-.009.017-.025.026-.034 0-.008.008-.008.008-.017.017-.025.034-.042.05-.067l.009-.009c.008-.008.017-.025.025-.033.008-.009.008-.017.017-.034v-.009c.008-.016.008-.025.017-.033v-.009c0-.008 0-.008.008-.017 0-.008 0-.016.008-.025v-.008c.017-.034.042-.06.068-.085h-.009a.366.366 0 00-.059.051c-.016.017-.05-.008-.025-.025.017-.009.025-.026.034-.034.025-.025.05-.06.084-.084.017-.017.033-.026.05-.034l.009-.009c.008-.016.025-.025.033-.042.151-.143.412-.143.605-.236.076-.034.176.017.252 0 .05 0 .092 0 .143.034-.143.025-.27.118-.403.202zm.284.127c-.008.017-.025.034-.042.05.017 0 .034.017.017.026a.379.379 0 01-.118.084h-.025c-.017.017-.042.034-.059.059-.017.017-.109.008-.084-.017.042-.034.076-.076.118-.11a.256.256 0 00.067-.067.066.066 0 01.034-.034c.025-.016.109-.025.092.009zM6.065 4.91c-.017.033-.034.033-.05.067a.131.131 0 01-.068.068c-.017 0-.033 0-.033-.017.016-.068.067-.127.126-.144.025-.008.025.009.025.026zm-1.32 1.054s-.016-.017-.016-.034c.21-.27.361-.523.512-.81.21-.11.378-.27.538-.447.269-.286.554-.54.89-.7a.578.578 0 01.412.017c-.05.068-.126.05-.194.093-.016 0-.033 0-.05-.017.017-.017.017-.034.017-.05-.16.177-.378.252-.504.463-.092.16-.16.363-.361.414-.067.017.017-.05-.017-.034-.496.304-.84.675-1.226 1.105zm2.436.346c-.033 0-.092.017-.075-.017.017-.076.126-.076.193-.11.034-.016.076-.05.11-.033.033.05.075.033.108.067-.1.093-.226.05-.336.093zm2.437 1.147c.092-.093.184-.185.268-.287.168-.194.336-.37.53-.54.058-.05.117-.1.176-.135.017-.016.017-.05.034-.067-.076.034-.127.093-.21.127-.017 0-.034-.017-.017-.034.059-.042.117-.085.168-.127h-.009c-.017 0-.017-.017-.017-.033-.21-.034-.36.11-.504.236-.033.017-.067-.017-.075-.017-.235.076-.412.287-.647.38v-.034c-.092.033-.185.093-.285.11-.143.033-.27.016-.395.016-.193.017-.387.06-.58.101-.008 0-.008 0-.017.009-.1.025-.201.067-.294.118l-.033.034c-.034.033-.067.076-.11.093-.1.05-.176.135-.26.21-.008.009-.017.009-.025.009-.084.084-.168.169-.252.244-.008.009-.034.009-.05.009 0-.008.008-.008.008-.017.017-.025.025-.042.042-.067l.05-.076c.026-.034.042-.068.068-.093.008-.009.008-.017 0-.017-.009-.008-.017-.008-.026-.008.076-.076.177-.144.27-.203-.01 0-.026-.008-.018-.017.009-.017.017-.025.026-.042 0-.008 0-.008.008-.017 0-.008-.008-.008-.008-.017l-.076.05c-.042.035-.067.102-.126.102h-.025c-.009 0-.017 0-.017-.008V7.44c0-.008.008-.008.008-.017 0-.008.009-.008.009-.016 0 0 0-.009.008-.009 0-.008.009-.017.009-.017 0-.008.008-.008.008-.017a.064.064 0 00.017-.033c0-.009.008-.009.008-.017.009-.009.009-.017.017-.026.008-.016 0-.025-.008-.025a.293.293 0 01.109-.093h-.009l.185-.1.025-.026a1.41 1.41 0 00-.252.126s-.016.009-.025.017c0 0-.017.009-.042-.017v-.008c.017-.034.067-.05.093-.076.016 0 .033 0 .033.017.513-.397 1.21-.304 1.798-.506.05-.034.092-.068.143-.093.075-.034.142-.11.235-.16a.727.727 0 00.269-.363c0-.017-.017-.034-.017-.034-.21.22-.445.397-.697.523-.336.177-.698.144-1.05.194.016-.034.05-.034.075-.034 0-.05.034-.067.067-.092h.05c.018 0 .018-.034.034-.034.034 0 .084-.017.068-.017-.05-.067-.143.05-.219 0 .034-.034.017-.076.05-.093h.068c0-.033.033-.067.033-.067.236-.144.462-.253.68-.38-.05 0-.075.05-.125.017.033 0 0-.05.033-.05.177-.051.32-.144.496-.211-.067 0-.11.05-.176 0 .033-.017.05-.051.092-.051v-.05c0-.018.017-.018.034-.018-.017 0-.034-.016-.034-.016.017-.034.067-.017.092-.051-.016 0-.05 0-.05-.017.05-.067.126-.076.21-.093-.017-.033-.067 0-.067-.033 0-.017.017-.017.033-.017h-.033c-.034-.017-.017-.05-.017-.068.092-.11.092-.253.143-.38-.017 0-.034 0-.034-.016-.16.177-.411.236-.647.303h-.109a.303.303 0 01-.269-.016c-.067-.034-.092-.076-.16-.127a2.147 2.147 0 00-.394-.194 3.526 3.526 0 00-1.218-.177c.176-.093.37-.101.554-.16.27-.076.521-.178.807-.16-.05-.018-.11 0-.16 0-.218-.018-.445.05-.68.092-.16.034-.303.093-.462.127-.093.033-.143.126-.252.11V4.64c.16-.194.353-.38.605-.397.285-.05.554 0 .84.034.21.017.394.067.604.11.076 0 .093.126.16.143.092.034.193 0 .286.067 0-.033-.017-.067 0-.092.067-.068.142.017.21-.017.126-.076-.11-.22-.177-.338 0-.017.017-.033.017-.033.126.11.218.236.378.32.076.034.269.076.235-.017-.075-.177-.235-.32-.37-.48v-.068c-.033 0-.033-.017-.05-.034v-.067c-.067-.034-.05-.093-.075-.144-.05-.076-.017-.194-.05-.286a1.584 1.584 0 01-.068-.27c-.05-.27-.11-.507-.143-.768-.033-.304.177-.54.32-.81.109-.194.235-.38.444-.506.05-.194.177-.354.303-.506.126-.152.336-.253.487-.32.219-.102.42-.161.42-.161H0v8.436h7.786c.303-.22.605-.32 1.025-.532.202-.084.655-.295.807-.447z" clip-rule="evenodd"></path><path fill="#E1000F" fill-rule="evenodd" d="M23.267 0h-9.088s.017 0 .085.042c.076.042.169.093.228.118a.736.736 0 01.305.253c.033.051.076.144.05.211-.034.076-.05.211-.127.236-.093.051-.22.051-.338.034-.068 0-.127-.017-.195-.034.237.093.466.211.627.43.016.034.076.051.143.051.017 0 .017.034.017.05-.034.035-.067.052-.05.094h.05c.076-.034.068-.194.178-.144.076.05.11.16.068.236-.068.068-.127.11-.195.16a.125.125 0 000 .11c.05.068.068.127.076.194.051.11.068.237.11.355.068.236.127.48.11.717 0 .126-.067.236-.017.362.034.127.11.22.178.338.068.093.127.16.178.253.093.16.27.32.194.506-.05.11-.22.093-.338.16-.093.076-.017.211.034.287.076.144-.093.236-.212.279.034.05.093.033.11.067.017.076.093.127.05.211-.067.093-.253.143-.16.287.068.11.026.236-.017.354a.388.388 0 01-.287.236.623.623 0 01-.305.017.251.251 0 00-.093-.034c-.27-.033-.542-.11-.813-.11-.076.018-.16.035-.22.06-.067.05-.135.11-.194.169-.009.016-.026.025-.034.042-.008.008-.017.017-.017.025l-.017.017c-.05.059-.084.118-.127.185 0 .009-.008.009-.008.009 0 .008-.009.017-.017.025-.05.093-.093.194-.119.295-.11.363-.059.675.017.751.017.017.525.177.88.338.17.076.28.126.381.194h8.927V0h-.008z" clip-rule="evenodd"></path><path fill="gray" fill-rule="evenodd" d="M14.92 3.065c.044.013.105.013.105.038-.022.097-.145.123-.212.22h-.033c-.033.026-.022.084-.05.084-.034-.013-.061 0-.095.013.045.052.095.084.156.071.011 0 .034.026.034.052 0 0 .01 0 .022-.013.011 0 .022 0 .022.013v.052c-.033.051-.083.026-.128.039a.397.397 0 00.245 0c.061-.026 0-.15.045-.207-.023 0 0-.04-.023-.04.023-.025.045-.057.062-.07.022 0 .05-.013.061-.039 0-.026-.045-.039-.033-.058.06-.052.116-.123.094-.194-.01-.039-.094-.039-.145-.065-.05-.026-.117 0-.178.013-.05 0-.106.039-.156.052a.667.667 0 00-.2.123c.072-.04.145-.052.228-.071.061-.013.111-.026.178-.013z" clip-rule="evenodd"></path><path fill="#000" fill-rule="evenodd" d="M46.002 28.747v-6.421h3.573v1.113h-2.324v1.48h1.98v1.114h-1.98v1.6h2.324v1.114h-3.573zm-5.7-.89l.904-.865c.186.25.394.445.624.582.235.137.48.205.731.205.246 0 .438-.065.575-.197.142-.13.214-.313.214-.547a.66.66 0 00-.115-.377.982.982 0 00-.32-.283 4.836 4.836 0 00-.453-.24c-.17-.085-.342-.168-.517-.248a3.274 3.274 0 01-.51-.29c-.17-.115-.32-.24-.451-.377a1.559 1.559 0 01-.32-.523 1.898 1.898 0 01-.124-.693c0-.52.186-.959.559-1.319.372-.36.843-.539 1.413-.539.854 0 1.569.36 2.144 1.079l-.912.856c-.394-.537-.802-.805-1.224-.805a.718.718 0 00-.518.197.612.612 0 00-.197.48c0 .12.033.23.099.333.065.097.15.186.254.266.11.074.236.148.378.222l.436.214.468.223c.159.08.307.177.444.291.142.108.268.234.377.377.11.137.195.3.255.488.066.194.099.408.099.642-.011.582-.211 1.047-.6 1.395-.383.349-.862.523-1.438.523-.503 0-.939-.089-1.306-.266a2.854 2.854 0 01-.97-.805zm-2.498.89h1.249v-6.421h-1.249v6.42zm-5.01-2.783h1.684l-.846-2.405-.838 2.405zm-2.3 2.783l2.324-6.421h1.627l2.324 6.42h-1.322l-.584-1.669h-2.456l-.591 1.67h-1.323zm-6.203-3.21c0-.457.08-.891.238-1.302.159-.417.378-.78.657-1.087.285-.308.63-.551 1.035-.728.41-.183.855-.274 1.33-.274.543 0 1.036.114 1.48.342.449.235.816.554 1.1.96l-.977.796a2.074 2.074 0 00-.682-.642c-.274-.16-.58-.24-.92-.24-.575 0-1.049.208-1.421.625-.373.416-.562.933-.567 1.55 0 .616.189 1.135.567 1.558.372.416.846.622 1.42.616.34 0 .647-.077.921-.231.274-.16.501-.377.682-.65l.977.787a3.001 3.001 0 01-2.103 1.275l-.764 1.336h-1.1l.772-1.353a3.135 3.135 0 01-1.389-.625 3.209 3.209 0 01-.936-1.19 3.5 3.5 0 01-.32-1.524zm-6.867 3.21v-6.421h1.593l2.744 4.597v-4.597h1.24v6.42h-1.593l-2.744-4.614v4.615h-1.24zm-5.02-2.783h1.692l-.846-2.405-.846 2.405zm-2.291 2.783l2.325-6.421h1.626l2.325 6.42h-1.323l-.591-1.669h-2.456l-.584 1.67h-1.322zm-4.108-3.699h.699c.263 0 .468-.071.616-.214.148-.142.219-.345.213-.607 0-.246-.07-.44-.213-.583-.143-.142-.348-.21-.616-.205h-.699v1.61zm-1.249 3.699v-6.421H6.63c.674 0 1.208.171 1.602.514.39.342.584.81.584 1.404 0 .382-.085.716-.255 1.001a1.69 1.69 0 01-.723.66l1.922 2.842H8.272l-1.634-2.594h-.633v2.594H4.756zm-4.756 0v-6.421h3.573v1.113H1.25v1.48h1.98v1.114h-1.98v2.714H0zm49.822-9.29v-6.42h3.574v1.113h-2.333v1.481h1.98v1.113h-1.98v1.6h2.333v1.114h-3.574zm-6.596-2.508v-3.912h1.25v4.015c0 .428.109.765.328 1.01.219.24.523.36.911.36.384 0 .685-.12.904-.36.22-.24.329-.576.329-1.01v-4.015h1.248v3.912c0 .845-.221 1.504-.665 1.978-.444.48-1.051.716-1.824.71-.766 0-1.372-.236-1.815-.71-.444-.48-.666-1.139-.666-1.978zm-5.832-2.251c-.372.416-.561.933-.567 1.55 0 .616.19 1.132.567 1.549.372.417.846.625 1.421.625a1.84 1.84 0 001.01-.283c.302-.188.537-.45.707-.787.17-.331.255-.7.255-1.105 0-.616-.19-1.133-.567-1.55a1.813 1.813 0 00-1.413-.624c-.575 0-1.049.208-1.421.625h.008zm-1.603 2.86a3.644 3.644 0 01-.238-1.31c0-.457.08-.891.238-1.302.16-.417.378-.779.658-1.087.284-.308.63-.554 1.035-.736.41-.183.851-.274 1.322-.274.471 0 .912.09 1.323.274.41.182.755.428 1.035.736.279.308.498.67.657 1.087.159.411.238.845.238 1.301 0 .537-.107 1.04-.32 1.507a3.26 3.26 0 01-.887 1.173l.37.368c.432.411.859.614 1.28.608.176 0 .324-.023.444-.069v1.105c-.191.08-.408.117-.649.111-.662 0-1.3-.28-1.914-.839l-.73-.685a3.16 3.16 0 01-.847.112 3.217 3.217 0 01-2.357-1.002 3.427 3.427 0 01-.658-1.079zm-2.76 1.9h1.24v-6.421h-1.24v6.42zm-4.756 0v-6.421h1.24v5.24h2.334v1.18h-3.574zm-4.272-3.904h.526c.236 0 .42-.063.55-.188.132-.12.198-.294.198-.523 0-.217-.066-.385-.198-.505-.126-.125-.309-.188-.55-.188h-.526v1.404zm0 2.79h.707c.29 0 .517-.073.682-.222.164-.154.246-.362.246-.625 0-.262-.082-.468-.246-.616-.165-.143-.392-.214-.682-.214h-.707v1.678zm-1.24 1.114v-6.421h1.742c.641 0 1.142.154 1.504.462.367.308.55.736.55 1.284 0 .531-.216.954-.649 1.268.323.154.572.359.748.616.175.262.262.562.262.899 0 .588-.205 1.05-.616 1.387-.405.337-.96.505-1.667.505h-1.873zm-6.596-2.509v-3.912h1.248v4.015c0 .428.11.765.329 1.01.219.24.523.36.912.36.383 0 .684-.12.903-.36.22-.24.329-.576.329-1.01v-4.015h1.249v3.912c0 .845-.222 1.504-.666 1.978-.443.474-1.051.71-1.823.71-.767 0-1.372-.236-1.816-.71-.444-.48-.665-1.139-.665-1.978zm-3.951-1.19h.83c.268 0 .476-.074.624-.222.148-.143.221-.343.221-.6 0-.245-.076-.439-.23-.582-.147-.142-.353-.21-.616-.205h-.83v1.61zm-1.25 3.699v-6.421h2.03c.673 0 1.202.171 1.585.514.389.342.583.81.583 1.404 0 .593-.194 1.058-.583 1.395-.389.343-.917.514-1.585.514h-.78v2.594h-1.25zm-3.885-6.969l.986-1.241h1.281l-1.133 1.241H7.08zm-1.207 6.969v-6.421h3.574v1.113H7.115v1.481h1.98v1.113h-1.98v1.6h2.333v1.114H5.874zM1.25 15.759h.698c.263 0 .466-.071.608-.214.148-.142.222-.345.222-.607 0-.246-.074-.44-.222-.583-.148-.142-.35-.21-.608-.205H1.25v1.61zM0 19.458v-6.421h1.873c.68 0 1.21.171 1.594.514.388.342.586.81.591 1.404 0 .382-.085.713-.255.993-.17.285-.41.508-.722.668l1.922 2.842H3.516L1.88 16.864H1.25v2.594H0z" clip-rule="evenodd"></path><mask id="a" width="22" height="16" x="0" y="32" maskUnits="userSpaceOnUse"><path fill="#fff" fill-rule="evenodd" d="M0 32.341h21.902V48H0V32.341z" clip-rule="evenodd"></path></mask><g mask="url(#a)"><path fill="#000" fill-rule="evenodd" d="M3.083 32.597H1.27l-.05.154c.528.11.579.162.335.861l-.546 1.51c-.252.692-.353.752-.966.863L0 36.138h2.756l.596-1.083h-.21c-.344.384-.74.87-1.353.87-.462 0-.529-.085-.268-.81l.546-1.511c.252-.691.353-.751.966-.862l.05-.145zm1.942.384c.168 0 .31-.145.31-.316a.318.318 0 00-.31-.315.32.32 0 00-.27.153.32.32 0 000 .325c.06.093.16.162.27.153zm-.085.802c.05-.187-.067-.29-.168-.29-.395 0-.874.367-1.059.87h.126c.126-.187.345-.392.555-.426l-.765 2.014c-.067.188.067.29.168.29.378 0 .824-.367 1.008-.87H4.68c-.126.187-.344.392-.554.426l.815-2.014zm2.58.265c0-.41-.1-.563-.386-.563-.353 0-.681.384-1.017.845l.706-1.93-.042-.059-.874.103v.102l.168.128c.151.12.1.239-.034.614l-.764 2.04c-.067.17-.143.375-.143.427 0 .238.32.469.613.469.664.017 1.773-1.22 1.773-2.176zM5.99 35.83c-.134 0-.328-.128-.328-.239 0-.034.06-.196.135-.392l.218-.598c.235-.29.605-.605.815-.605.126 0 .219.085.219.264-.009.563-.513 1.57-1.059 1.57zm3.21-.563H9.03c-.21.256-.445.461-.672.461-.235 0-.352-.145-.352-.46 0-.129.016-.265.042-.385l1.377-.46c.27-.65-.05-.93-.437-.93-.655 0-1.394 1.16-1.394 2.073 0 .435.201.674.52.674.379 0 .765-.367 1.085-.973zm-.472-1.4c.185 0 .345.146.26.478l-.848.23c.135-.417.387-.707.588-.707zm2.932.24c.092-.333.042-.615-.202-.615-.31 0-.411.213-.714.88v-.376c0-.265-.084-.504-.319-.504-.277 0-.53.444-.73.87h.125c.135-.196.26-.315.361-.315.118 0 .185.188 0 .606l-.537 1.211c-.101.23.008.376.227.376.134 0 .193-.034.252-.18l.529-1.416c.151-.188.286-.35.454-.529h.554v-.008zm.236-.23h.462l-.722 2.013c-.067.17.025.341.201.341.513 0 1.135-.443 1.361-1.075h-.126c-.184.265-.588.555-.89.615l.663-1.895h.681l.084-.29h-.664l.252-.725h-.26l-.47.725-.563.077v.213h-.009zm2.933-.692l.781-.725v-.103h-.52l-.463.836h.202v-.008zm.218 2.082h-.168c-.21.256-.445.461-.672.461-.235 0-.353-.145-.353-.46 0-.129.017-.265.042-.385l1.378-.46c.269-.65-.059-.93-.437-.93-.655 0-1.394 1.16-1.394 2.073 0 .435.201.674.52.674.379 0 .765-.367 1.084-.973zm-.471-1.4c.185 0 .344.146.26.478l-.848.23c.134-.417.386-.707.588-.707zM2.899 38.23l.781-.58v-.102h-.52l-.463.682H2.9zm-.395 2.082c.327 0 .336.145.285.512h.193l.437-1.22h-.193c-.168.29-.294.512-.655.512H1.84l.361-.998c.126-.359.193-.427.639-.427h.319c.462 0 .52.128.52.623h.186l.15-.828H1.27l-.05.154c.528.11.579.162.335.862l-.546 1.51c-.252.691-.353.751-.966.862L0 42.027h3.058l.546-.88h-.21c-.353.36-.714.675-1.395.675-.814 0-.739-.043-.47-.81l.252-.692h.723v-.009zM5.93 42.36c0-.324-.285-.443-.747-.58-.395-.12-.58-.153-.58-.29 0-.102.084-.23.252-.324.655-.034 1.067-.632 1.067-1.16a.816.816 0 00-.042-.257h.445l.084-.29h-.756a.65.65 0 00-.37-.102c-.688 0-1.134.614-1.134 1.16 0 .35.202.589.521.632-.32.153-.504.315-.504.52 0 .12.042.205.143.282-.74.222-1.042.503-1.042.828 0 .35.454.495.991.495.908.008 1.672-.495 1.672-.914zm-1.075-1.382c-.168 0-.227-.145-.227-.307 0-.504.235-1.11.613-1.11.168 0 .227.145.227.308 0 .495-.244 1.109-.613 1.109zm-1.033 1.63c0-.265.252-.435.613-.58.118.06.303.128.538.204.378.128.52.18.52.29 0 .248-.344.435-.974.435-.47.01-.697-.093-.697-.35zm4.864-3.354l-.21-.017-.236.24H8.2c-1 0-2.075 1.262-2.075 2.26 0 .23.126.385.37.385.294 0 .58-.427.907-.88l-.017.163c-.042.46.101.716.336.716.278 0 .53-.443.723-.87h-.126c-.135.196-.26.316-.361.316-.101 0-.177-.197 0-.598l.73-1.715zm-2.092 2.074c0-.623.68-1.468 1.067-1.468.084 0 .16.009.236.034l-.404 1.075c-.227.282-.58.623-.747.623-.093.009-.152-.076-.152-.264zm2.571.35l1.26-3.397-.042-.06-.873.103v.102l.168.129c.15.119.1.23-.034.614l-.958 2.594a.23.23 0 00.202.341c.395 0 .823-.367 1.008-.87h-.126c-.134.196-.403.401-.605.444zm2.435-2.816c.168 0 .311-.145.311-.316a.318.318 0 00-.31-.316.32.32 0 00-.27.154.32.32 0 000 .324c.06.094.16.162.27.154zm-.075.802c.06-.188-.067-.29-.168-.29-.395 0-.873.367-1.058.87h.126c.126-.188.344-.392.554-.427l-.764 2.014c-.067.188.067.29.168.29.378 0 .823-.366 1.008-.87h-.126c-.126.188-.345.393-.555.427l.815-2.014zm.47.094h.454l-.723 2.014c-.067.17.026.34.202.34.513 0 1.126-.443 1.361-1.074h-.126c-.185.264-.588.554-.89.614l.663-1.894h.68l.085-.29h-.664l.252-.726h-.26l-.47.726-.564.085v.205zm2.934-.7l.781-.725v-.103h-.52l-.462.836h.201v-.008zm.218 2.082h-.168c-.21.256-.446.46-.672.46-.236 0-.353-.144-.353-.46 0-.128.017-.264.042-.384l1.378-.46c.268-.65-.06-.93-.437-.93-.656 0-1.395 1.16-1.395 2.073 0 .435.202.674.521.674.378.008.764-.367 1.084-.973zm-.471-1.4c.184 0 .344.146.26.478l-.849.23c.135-.409.387-.707.589-.707zM1.966 47.899l.05-.154c-.663-.128-.747-.128-.479-.862l.252-.691h.53c.327 0 .336.145.285.512h.194l.436-1.22h-.193c-.168.29-.294.512-.655.512h-.53l.362-.999c.126-.358.185-.427.638-.427h.118c.462 0 .52.128.52.623h.186l.151-.827H1.269l-.05.153c.528.111.579.163.335.862l-.546 1.51c-.252.692-.353.752-.966.862L0 47.907h1.966v-.008zm3.52-2.04c.092-.333.042-.614-.202-.614-.31 0-.411.213-.714.879v-.376c0-.264-.084-.503-.328-.503-.277 0-.529.444-.722.87h.126c.134-.196.26-.316.361-.316.118 0 .185.188 0 .606l-.546 1.22c-.1.23.009.376.227.376.134 0 .193-.034.252-.18l.53-1.424c.15-.188.285-.35.453-.53h.563v-.008zm2.142-.734l-.21-.017-.235.24H7.14c-1 0-2.075 1.262-2.075 2.26 0 .23.126.385.37.385.293 0 .579-.427.907-.88l-.017.163c-.042.46.1.717.336.717.277 0 .529-.444.722-.87h-.126c-.134.195-.26.315-.361.315-.1 0-.176-.197 0-.606l.73-1.707zm-2.09 2.082c0-.623.68-1.467 1.066-1.467.084 0 .168.008.236.034l-.395 1.075c-.227.282-.58.623-.748.623-.1 0-.16-.077-.16-.265zm2.41-1.57h.454L7.68 47.65c-.068.17.025.342.201.342.513 0 1.134-.444 1.361-1.076h-.126c-.185.265-.588.555-.89.615l.663-1.895h.681l.084-.29H8.99l.252-.725h-.26l-.47.725-.563.077v.213zm3.15 1.383h-.168c-.21.256-.445.46-.672.46-.235 0-.353-.145-.353-.46 0-.128.017-.265.042-.384l1.378-.461c.269-.649-.05-.93-.437-.93-.655 0-1.395 1.16-1.395 2.073 0 .435.202.675.521.675.378 0 .765-.367 1.084-.973zm-.47-1.4c.184 0 .344.145.26.478l-.849.23c.143-.41.387-.708.588-.708zm2.932.24c.092-.334.042-.615-.202-.615-.31 0-.412.213-.714.879v-.376c0-.264-.084-.503-.32-.503-.276 0-.528.444-.73.87h.126c.134-.196.26-.316.361-.316.118 0 .185.188 0 .606l-.537 1.212c-.101.23.008.376.226.376.135 0 .194-.035.252-.18l.513-1.416c.151-.188.285-.35.454-.53h.57v-.008zm.545-.052c.118 0 .185.188 0 .606l-.537 1.212c-.101.23.008.375.227.375.134 0 .193-.034.252-.18l.529-1.416c.243-.307.697-.631.899-.631.143 0 .126.12.033.307l-.814 1.579c-.076.153.025.341.201.341.395 0 .874-.367 1.059-.87h-.143c-.126.187-.345.392-.555.426l.698-1.433c.092-.18.134-.35.134-.487 0-.23-.126-.384-.37-.384-.344 0-.638.393-1.058.88v-.376c0-.265-.084-.504-.32-.504-.277 0-.529.444-.73.87h.126c.143-.204.269-.315.37-.315zm3.69-1.076c.167 0 .31-.145.31-.315a.318.318 0 00-.31-.316.303.303 0 00-.22.094.312.312 0 00-.092.222c0 .179.135.316.311.316zm-.077.803c.059-.188-.067-.29-.16-.29-.394 0-.873.367-1.058.87h.126c.126-.188.344-.392.554-.426l-.764 2.013c-.067.188.067.29.168.29.378 0 .823-.367 1.008-.87h-.126c-.126.188-.344.393-.554.427l.806-2.014zm.47.102h.453l-.722 2.014c-.067.17.025.342.201.342.513 0 1.126-.444 1.361-1.076h-.126c-.184.265-.588.555-.89.615l.664-1.895h.68l.084-.29h-.664l.252-.725h-.26l-.47.725-.563.077v.213zm2.934-.7l.78-.725v-.102h-.52l-.462.836h.202v-.009zm.218 2.083h-.168c-.21.256-.446.46-.672.46-.236 0-.353-.145-.353-.46 0-.128.017-.265.042-.384l1.378-.461c.268-.649-.06-.93-.437-.93-.656 0-1.395 1.16-1.395 2.073 0 .435.202.675.52.675.379 0 .765-.367 1.085-.973zm-.47-1.4c.184 0 .343.145.26.478l-.849.23c.134-.41.387-.708.588-.708z" clip-rule="evenodd"></path></g></svg> 